<svg xmlns="http://www.w3.org/2000/svg" xmlns:xlink="http://www.w3.org/1999/xlink" width="93.212" height="95.407" viewBox="0 0 93.212 95.407">
  <defs>
    <linearGradient id="linear-gradient" y1="0.5" x2="1" y2="0.5" gradientUnits="objectBoundingBox">
      <stop offset="0.001" stop-color="#b68c32"/>
      <stop offset="1" stop-color="#d4ba7d"/>
    </linearGradient>
    <linearGradient id="linear-gradient-3" x1="0" y1="0.5" x2="1" y2="0.5" xlink:href="#linear-gradient"/>
    <linearGradient id="linear-gradient-16" x1="0.562" y1="0.313" x2="0.256" y2="0.835" xlink:href="#linear-gradient"/>
    <linearGradient id="linear-gradient-17" x1="0.63" y1="0.018" x2="0.243" y2="0.899" xlink:href="#linear-gradient"/>
    <linearGradient id="linear-gradient-18" x1="0.616" y1="-0.258" x2="0.424" y2="0.845" xlink:href="#linear-gradient"/>
    <linearGradient id="linear-gradient-19" x1="0.614" y1="-0.145" x2="0.429" y2="0.7" xlink:href="#linear-gradient"/>
    <linearGradient id="linear-gradient-21" x1="0" y1="0.5" x2="1" y2="0.5" xlink:href="#linear-gradient"/>
    <linearGradient id="linear-gradient-22" x1="0" y1="0.5" x2="1" y2="0.5" xlink:href="#linear-gradient"/>
    <linearGradient id="linear-gradient-23" x1="0" y1="0.5" x2="1" y2="0.5" xlink:href="#linear-gradient"/>
    <linearGradient id="linear-gradient-26" x1="0" y1="0.5" x2="1" y2="0.5" xlink:href="#linear-gradient"/>
    <linearGradient id="linear-gradient-29" x1="0" y1="0.5" x2="1" y2="0.5" xlink:href="#linear-gradient"/>
  </defs>
  <g id="Group_5" data-name="Group 5" transform="translate(-316.045 -150.038)">
    <g id="Group_3" data-name="Group 3" transform="translate(316.045 150.038)">
      <g id="Group_1" data-name="Group 1" transform="translate(0 61.018)">
        <path id="Path_1" data-name="Path 1" d="M316.045,320.936v-7.719h10.422v1.815h-8.286v1.192h8.286V317.9h-8.286v1.225h8.286v1.815Z" transform="translate(-316.045 -312.867)" fill="url(#linear-gradient)"/>
        <path id="Path_2" data-name="Path 2" d="M348.835,320.628v-7.9l6.756,4.712,6.746-4.712v7.9h-2.126V316.55l-4.621,3.258-4.62-3.258v4.078Z" transform="translate(-336.503 -312.559)" fill="url(#linear-gradient)"/>
        <path id="Path_3" data-name="Path 3" d="M389.816,320.936v-7.719h2.136v7.719Z" transform="translate(-362.072 -312.867)" fill="url(#linear-gradient-3)"/>
        <path id="Path_4" data-name="Path 4" d="M412.134,316.257a2.443,2.443,0,0,1-1.766,2.624l1.376,2.056h-2.454l-1.109-1.848h-5.473v1.848h-2.136v-7.719h8.1q3.46,0,3.46,2.985Zm-9.426-1.071v2.1h5.986a1.645,1.645,0,0,0,1.017-.241.913.913,0,0,0,.3-.754v-.055a.983.983,0,0,0-.3-.793,1.569,1.569,0,0,0-1.012-.257Z" transform="translate(-368.784 -312.867)" fill="url(#linear-gradient)"/>
        <path id="Path_5" data-name="Path 5" d="M443.727,320.355l-1.047-1.225h-6.849l-1.047,1.225h-2.732l7.208-8.069,7.188,8.069Zm-6.489-2.865h4.035l-2.012-2.351Z" transform="translate(-388.424 -312.286)" fill="url(#linear-gradient)"/>
        <path id="Path_6" data-name="Path 6" d="M470.283,320.936v-5.751h-4.538v-1.968h11.2v1.968h-4.528v5.751Z" transform="translate(-409.446 -312.867)" fill="url(#linear-gradient)"/>
        <path id="Path_7" data-name="Path 7" d="M499.435,320.936v-7.719h10.422v1.815h-8.286v1.192h8.286V317.9h-8.286v1.225h8.286v1.815Z" transform="translate(-430.466 -312.867)" fill="url(#linear-gradient)"/>
        <path id="Path_8" data-name="Path 8" d="M531.417,320.936v-1.815h7.855a1.454,1.454,0,0,0,.729-.142.517.517,0,0,0,.236-.481.5.5,0,0,0-.231-.465,1.5,1.5,0,0,0-.734-.137h-5.39a2.635,2.635,0,0,1-1.936-.623,2.293,2.293,0,0,1-.621-1.695,2.361,2.361,0,0,1,.621-1.728,2.607,2.607,0,0,1,1.936-.634h8.225v1.815h-7.7a1.244,1.244,0,0,0-.668.137.517.517,0,0,0-.205.465.505.505,0,0,0,.2.464,1.326,1.326,0,0,0,.673.126h5.452a2.668,2.668,0,0,1,1.956.623,2.3,2.3,0,0,1,.621,1.695,2.417,2.417,0,0,1-.621,1.749,2.609,2.609,0,0,1-1.956.645Z" transform="translate(-450.362 -312.867)" fill="url(#linear-gradient)"/>
        <path id="Path_9" data-name="Path 9" d="M316.045,355.823V348.1h10.586v1.968h-8.45v1.378h8.45v1.76h-8.45v2.613Z" transform="translate(-316.045 -334.634)" fill="url(#linear-gradient)"/>
        <path id="Path_10" data-name="Path 10" d="M356.879,355.242l-1.047-1.225h-6.849l-1.047,1.225H345.2l7.208-8.069,7.188,8.069Zm-6.489-2.865h4.035l-2.013-2.35Z" transform="translate(-334.238 -334.053)" fill="url(#linear-gradient)"/>
        <path id="Path_11" data-name="Path 11" d="M388.4,355.823V348.1h2.136v5.751H399v1.968Z" transform="translate(-361.187 -334.634)" fill="url(#linear-gradient)"/>
        <path id="Path_12" data-name="Path 12" d="M426.088,355.823a4.962,4.962,0,0,1-3.352-.957,3.586,3.586,0,0,1-1.083-2.838v-.087q0-3.838,4.436-3.838h6.448v1.968h-6.51a2.6,2.6,0,0,0-1.72.454,1.77,1.77,0,0,0-.519,1.405v.087a1.729,1.729,0,0,0,.524,1.389,2.625,2.625,0,0,0,1.715.448h6.51v1.968Z" transform="translate(-381.935 -334.634)" fill="url(#linear-gradient)"/>
        <path id="Path_13" data-name="Path 13" d="M460.6,355.823a4.963,4.963,0,0,1-3.353-.957,3.587,3.587,0,0,1-1.083-2.838v-.087q0-3.838,4.436-3.838h3.583q4.436,0,4.436,3.838v.087a3.588,3.588,0,0,1-1.083,2.838,4.964,4.964,0,0,1-3.353.957Zm-.062-1.968h3.717a2.6,2.6,0,0,0,1.715-.454,1.732,1.732,0,0,0,.524-1.383v-.087a1.762,1.762,0,0,0-.524-1.405,2.605,2.605,0,0,0-1.715-.454h-3.717a2.6,2.6,0,0,0-1.719.454,1.77,1.77,0,0,0-.519,1.405v.087a1.73,1.73,0,0,0,.524,1.389A2.625,2.625,0,0,0,460.535,353.855Z" transform="translate(-403.466 -334.634)" fill="url(#linear-gradient)"/>
        <path id="Path_14" data-name="Path 14" d="M507.84,355.686l-9.518-4.887v4.68h-2.136v-7.927l9.529,4.9v-4.69h2.125Z" transform="translate(-428.438 -334.289)" fill="url(#linear-gradient)"/>
        <path id="Path_15" data-name="Path 15" d="M534.448,355.823v-1.815H542.3a1.455,1.455,0,0,0,.729-.142.517.517,0,0,0,.236-.481.5.5,0,0,0-.231-.464,1.5,1.5,0,0,0-.734-.137h-5.39a2.636,2.636,0,0,1-1.936-.623,2.293,2.293,0,0,1-.621-1.695,2.36,2.36,0,0,1,.621-1.727,2.606,2.606,0,0,1,1.936-.634h8.224v1.815h-7.7a1.244,1.244,0,0,0-.668.137.517.517,0,0,0-.205.465.506.506,0,0,0,.2.464,1.33,1.33,0,0,0,.673.126h5.452a2.668,2.668,0,0,1,1.956.623,2.3,2.3,0,0,1,.621,1.695,2.417,2.417,0,0,1-.621,1.749,2.611,2.611,0,0,1-1.956.645Z" transform="translate(-452.253 -334.634)" fill="url(#linear-gradient)"/>
      </g>
      <g id="Group_2" data-name="Group 2" transform="translate(18.156 0)">
        <path id="Path_16" data-name="Path 16" d="M449.436,183.521c-.039.083-.224.038-.332.038-2,0-3.994.023-5.989-.012a1.858,1.858,0,0,0-1.378.608c-.866.791-1.8,1.506-2.692,2.259q-1.739,1.458-3.472,2.922a8.6,8.6,0,0,1-1.015.832c-.871.532-1.868.269-2.821.309-.191.008-.549.038-.648-.178-.141-.311.366-.635.565-.775.381-.266.749-.532,1.11-.827,1.027-.837,2.028-1.7,3.054-2.542.155-.126.309-.252.463-.375.847-.677,1.656-1.4,2.483-2.1l.186-.156,2.6-2.185a.251.251,0,0,1,.082-.022h.075c.04,0,.079.008.121.008.89,0,1.781.007,2.672.007a1.074,1.074,0,0,0,.265-.014h.005a.256.256,0,0,0,.165-.134c.092-.181-.061-.3-.156-.435-.322-.44-.646-.877-.968-1.317q-.231-.315-.46-.632a.677.677,0,0,0-.323-.269.616.616,0,0,0-.2-.032h-.454c-1.457,0-2.915-.006-4.373-.006-1.1,0-2.189,0-3.284.016h-.166a10.266,10.266,0,0,1-3.284-.476,5.439,5.439,0,0,1-2.433-1.774c-.107-.126-.212-.254-.314-.386a5.342,5.342,0,0,1-1.088-2.482,7.19,7.19,0,0,1,.022-2.272c.018-.115.038-.23.06-.346a4.3,4.3,0,0,1,.313-.962,5.687,5.687,0,0,1,.5-.88c.144-.212.158-.354.066-.49l-2.174.017-4.965.039-.642,0-7.963.062-3.09-2.6.089-2.913,3.577,3.011H417.7l-7.969-6.689.088-2.876,11.394,9.564h4.4l-1-.846c-1.66-1.4-3.3-2.816-4.988-4.184-1.566-1.271-3.1-2.587-4.651-3.873-.8-.66-1.595-1.319-2.382-1.991-.507-.433-.99-.894-1.51-1.311-.435-.349-1-.653-1.213-1.2a4.184,4.184,0,0,1-.22-1.349,1.842,1.842,0,0,1,.1-1.13c.247-.37.582.123.769.282.383.325.8.616,1.16.964.623.6,1.317,1.122,1.979,1.678l6.621,5.564q3.441,2.89,6.885,5.778.967.81,1.939,1.617h.016l1.355,1.127-.009.006.266.221,1.354,1.127a6.018,6.018,0,0,0-1.632,1.253c-.033.041-.064.083-.094.127a4.738,4.738,0,0,0-.6,1.2,3.644,3.644,0,0,0-.006,2.272,4.509,4.509,0,0,0,.287.692,3.846,3.846,0,0,0,3.426,2.176c.061,0,.124,0,.186,0q1.776.015,3.555.019,1.718,0,3.437,0,1.275,0,2.551-.019l.406,0c.049,0,.1,0,.143,0a1.258,1.258,0,0,1,.85.381c.02.019.038.039.056.059a2.184,2.184,0,0,1,.2.26c.073.111.147.222.224.332.156.23.318.458.48.683q.2.276.4.549l0,0,.013.018c.306.416.615.831.917,1.25l.227.318c.285.405.58.8.874,1.2.465.633.929,1.267,1.35,1.93l.055.078C449.443,183.424,449.454,183.485,449.436,183.521Z" transform="translate(-392.544 -150.038)" fill="url(#linear-gradient-16)"/>
        <path id="Path_17" data-name="Path 17" d="M403.657,229.461v3.085l.76-.609,2.669.553L402,236.567l-2.668-.554,2.052-1.643h-.035v-4.909h-2.577l-11.829,9.946h-.03c-.064.048-.13.094-.2.139a6.358,6.358,0,0,1-8.938-1.925l0,0h0c-.029-.044-.058-.089-.085-.134l1.637-1.4,6.29-5.367,1.638-1.4L400.65,217.9l-9.566-9.566h0l-8.887.074v1.668l-1.806-.742v-.909l-13.289.111-2.778-2.506h27.622l2.275,2.275.017.016,9.728,9.731-15.3,13.02-1.65,1.4-.013.011-6.157,5.241-.056.049c.043.032.089.062.137.09a4.241,4.241,0,0,0,3.7.387l.438-.368h0l1.386-1.165,3-2.52,8.4-7.059h12l-2.586,2.325Z" transform="translate(-364.322 -184.97)" fill="url(#linear-gradient-17)"/>
        <path id="Path_18" data-name="Path 18" d="M407.086,226.276l-1.69,1.476-5.529-5.529h-6.854v2.05l-1.805-.6v-1.446h-6.46l-3.43-2.239,19.353-.028Z" transform="translate(-374.926 -193.661)" fill="url(#linear-gradient-18)"/>
        <path id="Path_19" data-name="Path 19" d="M415.091,238.909l-1.69,1.476-3.521-3.521h-2.234v1.972l-1.806-.649v-1.324h-2.528l-3.43-2.239,10.8-.028Z" transform="translate(-386.509 -202.796)" fill="url(#linear-gradient-19)"/>
      </g>
    </g>
    <g id="Group_4" data-name="Group 4" transform="translate(331.822 240.703)">
      <path id="Path_20" data-name="Path 20" d="M359.681,395.863l-.78-2.2v-.428h.693v-1.5H358.7v4.129H358v-4.73h1.876a.38.38,0,0,1,.427.433v1.721a.384.384,0,0,1-.421.433h-.241l.78,2.117v.025Z" transform="translate(-357.997 -391.127)" fill="#b68b2f"/>
      <path id="Path_21" data-name="Path 21" d="M367.232,395.863v-4.73h1.944v.625h-1.238v1.38H369v.613h-1.065v1.486h1.257v.625Z" transform="translate(-363.759 -391.127)" fill="#b68b2f"/>
      <path id="Path_22" data-name="Path 22" d="M376.789,395.853l-.143-.9h-.885l-.143.9h-.7v-.012l.916-4.723h.743l.91,4.723v.012Zm-.588-3.634-.347,2.135h.693Z" transform="translate(-368.555 -391.117)" fill="url(#linear-gradient)"/>
      <path id="Path_23" data-name="Path 23" d="M384.449,395.863v-4.73h.706v4.1h1.151v.631Z" transform="translate(-374.501 -391.127)" fill="url(#linear-gradient-21)"/>
      <path id="Path_24" data-name="Path 24" d="M392.185,395.863v-4.73h.706v4.73Z" transform="translate(-379.328 -391.127)" fill="url(#linear-gradient-22)"/>
      <path id="Path_25" data-name="Path 25" d="M398.192,391.758v4.1h-.706v-4.1h-.774v-.625h2.259v.625Z" transform="translate(-382.152 -391.127)" fill="url(#linear-gradient-23)"/>
      <path id="Path_26" data-name="Path 26" d="M406.424,394.123v1.74h-.712v-1.74l-.935-2.965v-.025h.73l.563,2.055.563-2.055h.724v.025Z" transform="translate(-387.185 -391.127)" fill="url(#linear-gradient)"/>
      <path id="Path_27" data-name="Path 27" d="M420,391.758v1.4h1.046v.613H420v2.093H419.3v-4.73h1.931v.625Z" transform="translate(-396.243 -391.127)" fill="url(#linear-gradient-3)"/>
      <path id="Path_28" data-name="Path 28" d="M429.079,395.863h-1.5a.38.38,0,0,1-.427-.433v-4.3h.706v4.129h.953v-4.129h.706v4.3A.383.383,0,0,1,429.079,395.863Z" transform="translate(-401.142 -391.127)" fill="url(#linear-gradient-26)"/>
      <path id="Path_29" data-name="Path 29" d="M438.375,395.863l-1.129-2.978a1.178,1.178,0,0,0,.019.124.847.847,0,0,1,.018.108,1.049,1.049,0,0,1,.006.109v2.637H436.6v-4.73h.617l1.129,2.916-.025-.124a.583.583,0,0,1-.015-.109c0-.039,0-.075,0-.108v-2.575h.693v4.73Z" transform="translate(-407.036 -391.127)" fill="url(#linear-gradient)"/>
      <path id="Path_30" data-name="Path 30" d="M448.24,395.621a.913.913,0,0,1-.671.241h-1.443v-4.73h1.443a.906.906,0,0,1,.675.244.89.89,0,0,1,.241.653v2.94A.872.872,0,0,1,448.24,395.621Zm-.467-3.49a.38.38,0,0,0-.111-.295.431.431,0,0,0-.3-.1h-.526v3.528h.508a.44.44,0,0,0,.325-.109.4.4,0,0,0,.108-.295Z" transform="translate(-412.982 -391.127)" fill="url(#linear-gradient-26)"/>
      <path id="Path_31" data-name="Path 31" d="M455.525,395.863v-4.73h.706v4.73Z" transform="translate(-418.847 -391.127)" fill="url(#linear-gradient-29)"/>
      <path id="Path_32" data-name="Path 32" d="M462.374,395.863l-1.129-2.978c0,.041.011.083.019.124a.787.787,0,0,1,.018.108c0,.039.006.076.006.109v2.637H460.6v-4.73h.617l1.129,2.916c-.009-.041-.017-.083-.025-.124a.557.557,0,0,1-.015-.109c0-.039,0-.075,0-.108v-2.575h.693v4.73Z" transform="translate(-422.01 -391.127)" fill="url(#linear-gradient-21)"/>
      <path id="Path_33" data-name="Path 33" d="M472.033,395.863h-1.486a.378.378,0,0,1-.421-.433v-3.863a.38.38,0,0,1,.427-.433h1.48a.381.381,0,0,1,.433.429v1.008h-.712v-.836h-.923v3.528h.923v-1.331h-.526v-.6h1.238v2.1A.383.383,0,0,1,472.033,395.863Z" transform="translate(-427.956 -391.127)" fill="url(#linear-gradient)"/>
      <path id="Path_34" data-name="Path 34" d="M486.663,395.751a.426.426,0,0,1-.316.111h-1.424a.424.424,0,0,1-.316-.113.441.441,0,0,1-.111-.325V394.3h.706v.966h.866v-.927l-1.417-1.341a.478.478,0,0,1-.121-.161.566.566,0,0,1-.034-.216v-1.051a.434.434,0,0,1,.111-.321.428.428,0,0,1,.316-.111h1.424a.424.424,0,0,1,.316.113.433.433,0,0,1,.111.319v1.06h-.706v-.891H485.2v.853l1.417,1.335a.545.545,0,0,1,.121.167.569.569,0,0,1,.034.216v1.125A.434.434,0,0,1,486.663,395.751Z" transform="translate(-436.922 -391.127)" fill="url(#linear-gradient)"/>
      <path id="Path_35" data-name="Path 35" d="M495.362,395.863v-2.123h-.96v2.123H493.7v-4.73h.706v1.95h.96v-1.95h.712v4.73Z" transform="translate(-442.663 -391.127)" fill="url(#linear-gradient)"/>
      <path id="Path_36" data-name="Path 36" d="M505.433,395.751a.425.425,0,0,1-.316.112h-1.535a.378.378,0,0,1-.421-.433v-3.863a.378.378,0,0,1,.421-.433h1.535a.426.426,0,0,1,.316.111.436.436,0,0,1,.112.322v3.863A.434.434,0,0,1,505.433,395.751Zm-.594-4.017h-.972v3.528h.972Z" transform="translate(-448.568 -391.127)" fill="#b68b2f"/>
      <path id="Path_37" data-name="Path 37" d="M515.171,395.869h-.694l-.421-2.68a1.084,1.084,0,0,1-.012-.176c0-.068,0-.154-.012-.257-.008.1-.012.188-.012.257a1.084,1.084,0,0,1-.012.176l-.421,2.68h-.693l-.693-4.736h.718l.366,2.8a1.232,1.232,0,0,1,.012.179c0,.066,0,.151.012.254q.012-.155.012-.254a1.174,1.174,0,0,1,.012-.179l.409-2.8h.582l.408,2.8a1.288,1.288,0,0,1,.012.182q0,.1.012.251.013-.155.013-.251a1.236,1.236,0,0,1,.012-.182l.365-2.8h.718Z" transform="translate(-454.207 -391.127)" fill="#b68b2f"/>
    </g>
  </g>
</svg>
